<svg width="16" height="16" viewBox="0 0 16 16" fill="none" xmlns="http://www.w3.org/2000/svg">
<circle cx="8" cy="8" r="8" fill="black"/>
<path d="M5.915 8.975C5.711 8.975 5.519 8.939 5.339 8.867C5.165 8.795 5 8.711 4.844 8.615C4.694 8.513 4.547 8.426 4.403 8.354C4.259 8.276 4.115 8.237 3.971 8.237C3.803 8.237 3.659 8.3 3.539 8.426C3.425 8.552 3.365 8.726 3.359 8.948H2.576C2.582 8.618 2.651 8.345 2.783 8.129C2.915 7.907 3.083 7.742 3.287 7.634C3.497 7.52 3.713 7.463 3.935 7.463C4.145 7.463 4.337 7.502 4.511 7.58C4.691 7.652 4.856 7.736 5.006 7.832C5.162 7.928 5.312 8.015 5.456 8.093C5.6 8.165 5.744 8.201 5.888 8.201C6.056 8.201 6.197 8.138 6.311 8.012C6.425 7.886 6.485 7.715 6.491 7.499H7.283C7.271 7.811 7.199 8.078 7.067 8.3C6.941 8.522 6.776 8.69 6.572 8.804C6.368 8.918 6.149 8.975 5.915 8.975ZM8.56452 11.873L12.0475 4.709H12.9925L9.50952 11.873H8.56452Z" fill="white"/>
</svg>
